HIERARCHY
ROOT hip
{
	OFFSET 0.000000 0.000000 0.000000 
	CHANNELS 6 Xposition Yposition Zposition Xrotation Zrotation Yrotation
	JOINT abdomen
	{
		OFFSET 0.000000 3.402643 0.000000 
		CHANNELS 3 Xrotation Zrotation Yrotation
		JOINT chest
		{
			OFFSET 0.000000 8.438565 -0.680529 
			CHANNELS 3 Xrotation Zrotation Yrotation
			JOINT neck
			{
				OFFSET 0.000000 10.207942 -0.272212 
				CHANNELS 3 Xrotation Zrotation Yrotation
				JOINT head
				{
					OFFSET 0.000000 3.130431 0.000000 
					CHANNELS 3 Xrotation Zrotation Yrotation
					End Site
					{
						OFFSET 0.000000 3.130435 0.000000 
					}
				}
			}
			JOINT lCollar
			{
				OFFSET 3.470700 6.669187 -0.816635 
				CHANNELS 3 Yrotation Zrotation Xrotation
				JOINT lShldr
				{
					OFFSET 3.198488 0.000000 0.000000 
					CHANNELS 3 Zrotation Yrotation Xrotation
					JOINT lForeArm
					{
						OFFSET 10.139888 0.000000 0.000000 
						CHANNELS 3 Yrotation Zrotation Xrotation
						JOINT lHand
						{
							OFFSET 8.370511 0.000000 0.000000 
							CHANNELS 3 Zrotation Yrotation Xrotation
							End Site
							{
								OFFSET 4.083176 0.000000 0.000000 
							}
						}
					}
				}
			}
			JOINT rCollar
			{
				OFFSET -3.470700 6.669187 -0.816635 
				CHANNELS 3 Yrotation Zrotation Xrotation
				JOINT rShldr
				{
					OFFSET -3.198488 0.000000 0.000000 
					CHANNELS 3 Zrotation Yrotation Xrotation
					JOINT rForeArm
					{
						OFFSET -10.139888 0.000000 0.000000 
						CHANNELS 3 Yrotation Zrotation Xrotation
						JOINT rHand
						{
							OFFSET -8.370511 0.000000 0.000000 
							CHANNELS 3 Zrotation Yrotation Xrotation
							End Site
							{
								OFFSET -4.083176 0.000000 0.000000 
							}
						}
					}
				}
			}
		}
	}
	JOINT lThigh
	{
		OFFSET 5.308129 -1.633274 1.361059 
		CHANNELS 3 Xrotation Zrotation Yrotation
		JOINT lShin
		{
			OFFSET -2.041588 -20.007561 0.000000 
			CHANNELS 3 Xrotation Zrotation Yrotation
			JOINT lFoot
			{
				OFFSET 0.000000 -19.190928 -1.224953 
				CHANNELS 3 Xrotation Yrotation Zrotation
				End Site
				{
					OFFSET 0.000000 -2.449906 4.627600 
				}
			}
		}
	}
	JOINT rThigh
	{
		OFFSET -5.308129 -1.633274 1.361059 
		CHANNELS 3 Xrotation Zrotation Yrotation
		JOINT rShin
		{
			OFFSET 2.041588 -20.007561 0.000000 
			CHANNELS 3 Xrotation Zrotation Yrotation
			JOINT rFoot
			{
				OFFSET 0.000000 -19.190928 -1.224953 
				CHANNELS 3 Xrotation Yrotation Zrotation
				End Site
				{
					OFFSET 0.000000 -2.449906 4.627600 
				}
			}
		}
	}
}
MOTION
Frames: 13
Frame Time: 0.033333
3.359001 47.389656 -102.245071 9.140625 -3.662110 1.141955 0.000000 0.000000 0.000000 3.164063 2.275391 -0.400003 -9.462891 3.369140 7.255859 12.128906 0.507813 8.115308 -3.056641 9.726563 0.478516 -79.736328 -17.548830 15.905260 -13.056641 -1.162109 2.480469 -10.800780 -6.357422 24.178608 2.666016 -9.931641 0.509511 84.609375 4.501953 -5.292271 6.337891 1.103516 2.275203 10.957031 10.214844 39.513451 -23.934496 8.388274 10.064808 36.249290 -3.259024 -0.177240 -21.414253 0.254154 0.166836 -22.563120 -1.796414 -3.852511 32.980408 3.262517 12.951993 -19.607866 0.236050 -3.437009 
3.360009 47.401863 -102.066353 9.140625 -3.662110 1.483751 0.000000 0.000000 0.000000 2.978516 2.255860 -0.410156 -9.462891 3.398438 7.451173 11.777344 0.507813 8.466870 -3.056641 9.726563 0.478516 -79.921875 -17.382811 14.655286 -10.771484 -1.220703 2.461146 -11.767578 -5.000000 29.521488 2.666016 -9.931641 0.509511 84.980469 4.179688 -4.589130 7.753907 1.074219 2.284973 10.820312 8.994140 42.304684 -23.363003 8.365530 10.255774 35.701942 -3.145842 -0.831277 -21.767117 0.623795 0.395766 -22.212358 -1.581737 -3.686519 33.156593 3.252688 13.310349 -19.906744 -0.209064 -4.118308 
3.391847 47.274891 -101.803223 8.447267 -2.958984 1.112787 0.000000 0.000000 0.000000 3.496094 1.386719 -0.263436 -9.423828 3.701172 8.291646 11.933594 1.210938 9.209192 -3.056641 9.726563 0.478516 -78.974609 -16.445311 11.559737 -8.828124 -1.240234 2.461149 -10.859374 -5.312500 34.208080 2.666016 -9.931641 0.509511 85.117188 4.707032 -3.710135 7.226562 1.083984 2.275391 11.386720 8.652345 41.651859 -22.427559 7.790860 10.512329 36.237507 -3.162161 -0.136934 -22.095766 0.387862 0.240634 -21.596256 -2.509450 -3.855536 34.317947 3.414803 15.131893 -20.825060 0.635949 -4.644468 
3.416386 47.238018 -101.649178 8.798828 -3.134685 1.767102 0.000000 0.000000 0.000000 3.164063 1.552734 -0.263407 -9.433594 3.652344 7.949841 12.304688 0.683594 8.994140 -3.056641 9.726563 0.478516 -78.916016 -14.492187 11.579590 -10.048828 -1.220703 2.470911 -9.472656 -4.716797 29.178886 2.666016 -9.931641 0.509511 84.599609 4.335938 -3.182854 8.105469 1.074219 2.284973 10.908203 7.568123 40.400753 -22.798819 7.800438 10.510144 36.602161 -3.165710 -0.368683 -22.476982 0.372914 0.233080 -22.213873 -2.118876 -3.083443 34.405106 3.330853 12.188801 -21.036919 0.481387 -3.886948 
3.306525 47.127022 -101.438644 8.613282 -3.671875 2.059921 0.000000 0.000000 0.000000 3.339844 1.748047 -0.419624 -9.394530 4.482423 9.951936 11.601563 1.914063 10.830404 -3.056641 9.726563 0.478516 -79.492188 -14.160156 9.333549 -7.949218 -1.269531 2.451388 -7.509767 -5.322266 29.570314 2.666016 -9.931641 0.509511 84.003906 5.000000 -2.469852 7.041016 1.083984 2.284971 12.089844 8.691406 42.042492 -23.083954 8.641557 10.201912 37.976513 -3.064209 -0.561396 -23.149569 0.521033 0.103457 -21.946234 -1.659641 -2.943703 34.797878 3.369505 11.501064 -21.730797 0.369739 -3.793394 
3.292179 46.879871 -101.283112 8.613282 -2.968750 3.397932 0.000000 0.000000 0.000000 3.496094 0.683594 -0.312383 -9.394530 4.433594 9.776145 11.416016 2.617188 10.498493 -3.056641 9.726563 0.478516 -77.929688 -13.720702 9.343389 -7.949218 -1.269531 2.451388 -9.833984 -4.912109 30.780415 2.666016 -9.931641 0.509511 84.033203 5.009766 -2.997192 6.337891 1.103516 2.275203 11.386720 8.486328 40.938946 -23.601122 7.772258 9.978768 39.191345 -3.162494 -2.098615 -24.225826 0.163459 0.514977 -22.786812 -2.158158 -2.730276 36.978355 3.013841 10.345778 -22.939547 0.343314 -3.596525 
3.464710 46.521465 -101.106560 8.437500 -2.783203 4.823744 0.000000 0.000000 0.000000 3.867188 0.869141 -0.292821 -9.228516 4.423828 9.600361 10.898438 2.089844 10.459341 -3.066406 9.736329 0.634766 -78.544922 -12.529297 8.288898 -8.300781 -1.250000 2.461151 -9.628906 -5.253906 32.001060 2.695313 -9.931641 0.683614 83.486328 5.322266 -3.006905 5.117188 1.132813 2.265432 10.175781 8.076172 39.102932 -24.497686 7.244180 10.209729 41.437366 -2.889763 -3.872710 -25.457209 0.044720 1.446059 -23.519579 -3.007481 -3.346197 39.479607 2.623409 10.001381 -24.740839 0.453057 -2.939431 
3.442939 46.232029 -101.109192 8.789063 -3.300781 6.669360 0.000000 0.000000 0.000000 4.218750 1.386719 -0.243904 -9.042969 4.716797 10.439452 11.250000 2.451172 11.377371 -3.066406 9.736329 0.634766 -79.306641 -11.494141 8.328134 -9.189453 -1.240234 2.460938 -9.375000 -6.640625 31.453951 2.695313 -9.931641 0.683614 82.363281 5.986328 -1.971638 4.394531 1.132813 2.265432 11.191406 8.642578 38.995613 -26.661625 7.291366 8.309542 43.606644 -2.841564 -2.808109 -26.178976 -0.254366 0.883182 -24.606339 -2.861394 -3.446681 41.142353 2.640559 8.075095 -25.976892 -0.055114 -2.692081 
3.345159 45.797619 -100.914009 8.974610 -3.300781 8.231859 0.000000 0.000000 0.000000 4.384766 1.386719 -0.253906 -9.257813 3.955079 8.789063 11.777344 1.572266 9.756127 -3.066406 9.736329 0.634766 -78.701172 -9.189452 9.402738 -11.806641 -1.191406 2.470906 -7.958984 -6.582031 28.377789 2.695313 -9.931641 0.683614 80.712891 6.962891 0.342982 1.601563 1.181641 2.255658 10.400392 6.855469 39.649605 -27.758337 7.341720 8.140279 46.049377 -2.881119 -3.833741 -27.558504 0.105459 1.304721 -25.431664 -2.528644 -2.317869 44.048939 2.460930 5.571596 -27.922907 0.603314 -1.426840 
3.322634 45.416309 -100.789436 9.306641 -3.486328 10.468156 0.000000 0.000000 0.000000 4.902344 2.089844 -0.351206 -9.257812 3.652344 7.949841 11.250000 -0.361328 9.277283 -3.066406 9.736329 0.634766 -79.482422 -7.832032 8.895154 -14.267577 -1.142578 2.480664 -9.111328 -5.234375 28.290127 2.695313 -9.931641 0.683614 80.810547 9.248047 -1.609757 -2.265625 1.230469 2.421665 11.103516 7.246094 44.102795 -28.886517 6.582363 7.736678 47.743946 -2.604761 -5.729947 -28.404268 1.006553 2.159607 -26.593596 -2.840947 -2.855541 46.213982 2.245937 4.092926 -29.508562 0.340189 -0.975490 
3.146578 45.078049 -100.585320 8.964845 -3.847656 12.391923 0.000000 0.000000 0.000000 5.791016 2.255860 -0.468366 -9.267578 3.183594 7.139214 11.054688 -1.582031 8.339574 -3.066406 9.736329 0.634766 -79.785156 -5.878906 6.971656 -15.849609 -1.113281 2.490433 -8.056640 -4.833985 27.684725 2.695313 -9.931641 0.683614 80.156250 11.679688 -1.775365 -2.988281 1.259766 2.421660 11.054688 4.228516 46.729237 -30.406664 6.620028 7.068217 50.204624 -2.550337 -5.736580 -28.981077 2.712950 2.358030 -27.015352 -2.519007 -2.573639 48.035759 2.441481 2.651742 -30.906244 0.115821 -0.720246 
3.081392 44.805847 -100.152023 8.447267 -4.003906 14.491505 0.000000 0.000000 0.000000 6.855469 2.431641 -0.410156 -9.267578 3.369141 7.275965 12.128906 -1.064453 8.515443 -3.066406 9.736329 0.634766 -80.000000 -5.380859 5.936586 -14.453124 -1.142578 2.480664 -9.580078 -6.318359 26.551661 2.695313 -9.931641 0.683614 80.683594 15.224611 -2.519531 -2.812500 1.259766 2.421875 10.283203 1.748047 50.693661 -34.252987 7.830385 7.157307 57.227600 -2.415376 -7.198650 -21.632517 3.677689 2.115542 -26.105597 -2.323926 -3.053521 49.256268 2.468298 3.020375 -32.635712 -0.214500 -1.348739 
2.952654 44.552902 -99.892799 8.105469 -4.365234 14.813708 0.000000 0.000000 0.000000 7.558595 2.089844 -0.419566 -9.267577 3.154297 6.963428 12.656250 -2.470703 8.398078 -3.066406 9.736329 0.634766 -80.556641 -2.753906 2.460470 -15.341797 -1.142578 2.490429 -8.388672 -5.205078 25.233492 2.695313 -9.931641 0.683614 80.751953 19.277346 1.770804 -2.812500 1.259766 2.421875 11.152345 -1.376953 51.796642 -39.565430 9.793162 7.469412 64.394180 -1.997431 -7.507696 -10.964208 3.758266 0.889188 -26.143833 -1.454574 -3.576619 50.362244 2.265511 2.882956 -33.559410 -0.260294 -1.591653 
